<?xml version="1.0" encoding="UTF-8" ?>
<!DOCTYPE svg PUBLIC "-//W3C//DTD SVG 1.1//EN" "http://www.w3.org/Graphics/SVG/1.1/DTD/svg11.dtd">
<svg width="800pt" height="320pt" viewBox="0 0 800 320" version="1.1" xmlns="http://www.w3.org/2000/svg">
<g id="#7456f1ff">
<path fill="#7456f1" opacity="1.00" d=" M 194.29 32.18 C 206.83 30.24 219.36 40.40 220.39 52.98 C 221.87 65.13 212.18 77.13 200.03 78.37 C 191.74 79.47 183.06 75.59 178.30 68.73 C 174.11 62.92 172.82 55.10 175.08 48.27 C 177.67 39.80 185.49 33.25 194.29 32.18 M 194.26 45.98 C 190.73 47.49 187.39 50.94 187.59 55.00 C 187.36 60.08 191.73 65.12 197.00 64.75 C 202.30 65.31 207.23 60.26 206.71 55.00 C 207.04 48.81 199.94 44.01 194.26 45.98 Z" />
<path fill="#7456f1" opacity="1.00" d=" M 234.96 83.01 C 236.92 73.13 245.94 65.28 255.98 64.64 C 266.99 63.64 277.87 71.63 280.29 82.39 C 282.88 92.21 277.99 103.28 269.08 108.10 C 262.36 112.09 253.80 111.83 246.84 108.59 C 239.73 115.57 232.74 122.68 225.68 129.72 C 224.26 131.30 222.20 132.16 220.07 132.00 C 208.35 131.96 196.63 132.08 184.92 131.95 C 179.88 131.95 177.08 125.66 179.55 121.58 C 180.93 118.90 184.10 117.99 186.91 118.03 C 197.23 117.95 207.56 118.03 217.89 118.00 C 224.26 111.59 230.65 105.21 237.05 98.84 C 234.89 93.89 233.70 88.36 234.96 83.01 M 254.21 78.82 C 250.63 80.34 247.81 83.96 248.26 87.99 C 247.87 92.83 252.20 97.42 257.00 97.45 C 262.96 98.18 268.57 91.96 267.33 86.09 C 266.04 80.42 259.79 76.69 254.21 78.82 Z" />
<path fill="#7456f1" opacity="1.00" d=" M 256.40 152.95 C 259.53 143.48 268.93 136.40 279.02 136.72 C 291.23 136.71 302.24 147.71 301.82 160.00 C 302.18 171.56 292.48 182.11 281.04 183.15 C 270.33 184.47 259.70 177.21 256.41 167.05 C 232.92 166.92 209.42 167.07 185.93 166.98 C 182.11 167.20 178.34 163.97 178.71 160.00 C 178.35 156.03 182.11 152.80 185.93 153.03 C 209.42 152.93 232.91 153.08 256.40 152.95 M 275.25 150.91 C 268.22 153.26 266.98 163.97 273.15 167.93 C 278.22 171.78 286.25 168.73 287.88 162.68 C 290.50 155.56 282.18 148.04 275.25 150.91 Z" />
<path fill="#7456f1" opacity="1.00" d=" M 179.98 199.05 C 176.82 195.07 179.59 188.02 184.92 188.04 C 196.64 187.93 208.35 188.03 220.07 188.00 C 222.20 187.84 224.26 188.70 225.68 190.29 C 232.74 197.33 239.74 204.43 246.85 211.42 C 252.91 208.60 260.14 207.96 266.39 210.58 C 273.99 213.62 279.75 220.90 280.73 229.07 C 282.09 237.95 277.55 247.23 269.93 251.90 C 260.13 258.33 245.79 255.53 239.05 245.98 C 233.56 238.96 233.24 229.04 237.05 221.16 C 230.65 214.79 224.26 208.41 217.89 202.00 C 207.90 201.99 197.91 202.01 187.92 202.01 C 185.06 202.04 181.72 201.65 179.98 199.05 M 254.27 223.07 C 247.28 225.35 246.00 236.00 252.11 239.98 C 257.82 244.40 266.92 240.04 267.40 232.96 C 268.21 226.27 260.53 220.39 254.27 223.07 Z" />
<path fill="#7456f1" opacity="1.00" d=" M 190.38 242.56 C 202.11 238.51 215.83 245.92 219.37 257.69 C 223.46 269.29 216.30 283.09 204.65 286.76 C 195.81 289.95 185.28 286.85 179.39 279.59 C 174.74 274.10 172.87 266.37 174.63 259.38 C 176.41 251.51 182.65 244.87 190.38 242.56 M 193.25 255.91 C 190.03 257.25 187.89 260.62 187.61 264.02 C 186.70 270.85 195.14 277.05 201.27 273.42 C 207.16 271.01 208.70 262.25 204.02 257.98 C 201.39 254.95 196.83 254.66 193.25 255.91 Z" />
</g>
<g id="#052049ff">
<path fill="#052049" opacity="1.00" d=" M 121.34 47.36 C 130.01 42.74 141.19 43.11 149.43 48.53 C 157.03 53.31 162.16 61.96 162.25 70.99 C 162.27 126.32 162.23 181.66 162.27 236.99 C 162.39 249.26 156.68 261.42 147.20 269.20 C 137.18 277.65 123.09 280.93 110.38 277.68 C 98.42 274.95 88.54 266.28 82.80 255.62 C 71.96 254.88 61.62 249.69 54.40 241.59 C 47.47 233.82 43.45 223.37 43.81 212.94 C 44.02 208.03 50.20 205.10 54.22 207.86 C 57.62 209.56 57.53 213.72 57.86 216.97 C 58.86 228.10 67.41 237.92 78.16 240.76 C 82.21 241.91 86.52 241.47 90.58 242.53 C 93.21 243.56 93.95 246.58 95.19 248.83 C 98.84 256.86 106.51 262.95 115.21 264.53 C 126.71 267.05 139.18 260.95 144.86 250.76 C 147.86 245.75 148.60 239.80 148.58 234.06 C 148.57 180.68 148.58 127.31 148.57 73.93 C 148.86 68.34 146.53 62.34 141.39 59.62 C 134.26 55.21 123.55 58.95 121.21 67.11 C 120.05 70.92 120.69 76.41 116.16 78.09 C 112.95 79.87 109.78 77.40 107.00 75.98 C 100.06 72.05 90.46 74.46 86.09 81.11 C 81.49 87.53 82.47 97.29 88.53 102.47 C 91.79 105.78 96.52 106.46 100.88 107.14 C 105.54 107.57 108.01 113.63 105.40 117.37 C 103.14 121.35 97.87 120.74 94.06 120.03 C 84.80 118.45 77.03 112.03 72.44 103.99 C 67.91 105.39 63.45 107.71 60.79 111.80 C 56.92 117.28 56.26 124.87 59.34 130.87 C 63.17 132.18 67.82 130.11 71.25 132.73 C 74.64 135.20 74.70 140.78 71.43 143.38 C 66.67 147.16 59.22 142.23 54.98 147.02 C 49.09 152.28 45.95 160.19 45.85 168.01 C 46.05 175.32 49.72 182.11 54.63 187.36 C 61.69 194.01 72.34 196.69 81.66 193.91 C 91.50 191.18 99.44 182.65 101.38 172.61 C 102.64 166.52 101.86 160.28 102.23 154.12 C 102.60 149.11 109.41 146.78 113.13 149.92 C 115.46 151.45 115.75 154.41 115.69 156.95 C 115.57 163.72 116.23 170.63 114.40 177.25 C 111.00 190.94 100.20 202.48 86.74 206.71 C 68.29 212.99 46.17 204.21 37.01 187.02 C 27.55 170.66 32.28 148.51 46.15 136.11 C 43.72 129.52 42.57 122.25 44.38 115.35 C 46.85 104.77 54.93 95.66 65.25 92.17 C 66.89 91.43 69.55 91.20 69.36 88.80 C 70.00 78.85 75.68 69.34 84.43 64.46 C 91.56 60.18 100.36 59.55 108.31 61.59 C 111.16 55.73 115.42 50.35 121.34 47.36 Z" />
<path fill="#052049" opacity="1.00" d=" M 374.15 94.12 C 382.04 90.40 392.70 91.58 398.53 98.45 C 402.26 102.67 403.54 108.45 403.55 113.96 C 403.62 126.29 403.48 138.62 403.62 150.95 C 398.20 151.03 392.79 151.03 387.38 150.95 C 387.50 140.30 387.39 129.65 387.46 119.01 C 387.43 115.56 387.36 111.74 385.06 108.94 C 380.68 103.62 370.90 104.54 367.66 110.67 C 366.06 113.48 366.09 116.82 366.05 119.96 C 366.09 130.30 366.08 140.65 366.07 150.99 C 360.69 151.00 355.32 151.00 349.94 151.00 C 349.94 131.61 349.93 112.23 349.95 92.84 C 355.06 92.82 360.17 92.82 365.29 92.84 C 365.32 96.32 365.28 99.80 365.35 103.28 C 367.77 99.80 370.13 95.94 374.15 94.12 Z" />
<path fill="#052049" opacity="1.00" d=" M 430.54 102.55 C 440.91 88.27 465.94 88.46 475.50 103.54 C 479.90 110.15 480.27 118.35 480.18 126.04 C 466.92 126.08 453.66 125.99 440.40 126.08 C 440.85 129.37 441.22 132.93 443.46 135.56 C 448.92 142.35 461.31 141.52 465.21 133.43 C 470.15 133.66 475.09 133.95 480.00 134.50 C 478.08 141.52 472.94 147.55 466.02 150.02 C 457.60 153.03 447.90 152.95 439.69 149.29 C 432.27 145.93 427.10 138.67 425.51 130.78 C 423.57 121.24 424.58 110.54 430.54 102.55 M 443.48 108.45 C 441.62 110.53 441.06 113.34 440.36 115.94 C 448.65 116.10 456.94 116.14 465.24 115.91 C 464.55 113.14 464.03 110.14 462.03 107.96 C 457.37 102.57 447.90 102.95 443.48 108.45 Z" />
<path fill="#052049" opacity="1.00" d=" M 601.67 93.60 C 606.26 91.09 611.76 91.90 616.39 93.87 C 614.88 98.25 613.24 102.60 611.72 106.98 C 607.58 106.07 602.82 105.41 599.23 108.21 C 595.72 110.56 594.18 114.86 594.33 118.94 C 594.29 129.63 594.37 140.31 594.31 151.00 C 588.93 151.00 583.54 151.01 578.17 150.98 C 578.21 131.61 578.18 112.23 578.18 92.86 C 583.39 92.82 588.60 92.82 593.82 92.85 C 593.82 96.30 593.80 99.76 593.96 103.21 C 595.81 99.54 597.74 95.46 601.67 93.60 Z" />
<path fill="#052049" opacity="1.00" d=" M 654.38 92.65 C 663.50 91.03 673.77 92.76 680.62 99.38 C 688.01 106.35 690.22 117.21 689.04 126.99 C 688.16 135.71 683.41 144.27 675.58 148.55 C 664.04 154.64 647.83 153.24 639.06 142.97 C 631.66 134.21 630.61 121.49 633.79 110.81 C 636.53 101.50 644.77 94.16 654.38 92.65 M 656.34 105.21 C 651.08 107.51 649.18 113.71 648.65 118.97 C 648.17 124.68 648.83 130.89 652.31 135.64 C 656.10 140.87 664.99 141.05 668.94 135.91 C 672.15 131.69 673.05 126.17 672.91 120.98 C 672.75 116.24 671.64 111.24 668.47 107.56 C 665.50 104.22 660.35 103.62 656.34 105.21 Z" />
<path fill="#052049" opacity="1.00" d=" M 501.18 92.86 C 506.55 92.82 511.93 92.82 517.30 92.84 C 517.37 103.91 517.30 114.98 517.32 126.05 C 517.29 129.64 518.06 133.63 521.01 136.00 C 525.81 139.87 533.71 138.18 536.85 132.97 C 538.66 129.98 538.46 126.35 538.53 122.99 C 538.45 112.98 538.56 102.97 538.46 92.96 C 543.85 92.75 549.25 92.81 554.65 92.89 C 554.63 112.25 554.58 131.60 554.67 150.95 C 549.49 151.02 544.31 151.00 539.14 150.99 C 539.14 147.49 539.17 143.99 538.99 140.50 C 536.68 143.91 534.36 147.62 530.53 149.50 C 523.02 153.30 512.81 152.43 506.88 146.13 C 502.76 141.90 501.23 135.83 501.20 130.07 C 501.14 117.67 501.21 105.26 501.18 92.86 Z" />
<path fill="#052049" opacity="1.00" d=" M 611.82 161.09 C 616.74 161.09 621.66 161.07 626.59 161.13 C 626.59 170.30 626.37 179.49 626.72 188.65 C 629.24 185.27 631.75 181.44 635.93 179.96 C 642.94 177.39 651.75 178.35 657.08 183.93 C 661.02 187.86 662.41 193.59 662.41 199.00 C 662.44 210.67 662.43 222.34 662.40 234.00 C 657.34 234.00 652.29 234.01 647.24 233.97 C 647.30 223.98 647.24 213.98 647.29 203.99 C 647.28 200.40 647.15 196.27 644.32 193.66 C 639.91 189.66 631.86 190.62 628.69 195.75 C 626.94 198.47 626.99 201.84 626.95 204.96 C 626.99 214.64 626.96 224.32 626.98 234.00 C 621.92 234.00 616.86 234.00 611.81 233.99 C 611.79 209.69 611.78 185.39 611.82 161.09 Z" />
<path fill="#052049" opacity="1.00" d=" M 682.99 166.21 C 688.01 166.22 693.04 166.22 698.07 166.21 C 698.09 170.57 698.10 174.93 698.09 179.29 C 701.50 179.33 704.91 179.30 708.33 179.29 C 708.39 183.10 708.39 186.91 708.34 190.72 C 704.92 190.71 701.50 190.69 698.09 190.73 C 698.12 199.18 698.06 207.63 698.08 216.07 C 698.21 217.91 697.98 220.21 699.60 221.50 C 701.84 222.96 704.65 222.27 707.17 222.39 C 707.88 226.10 708.66 229.81 709.14 233.58 C 702.53 235.02 695.00 235.80 689.02 231.97 C 684.94 229.51 682.97 224.69 682.98 220.07 C 682.85 210.29 682.98 200.51 682.94 190.74 C 680.43 190.71 677.92 190.69 675.42 190.68 C 675.46 186.90 675.46 183.12 675.42 179.34 C 677.92 179.32 680.43 179.30 682.94 179.28 C 682.93 174.92 682.92 170.56 682.99 166.21 Z" />
<path fill="#052049" opacity="1.00" d=" M 350.08 179.28 C 355.11 179.33 360.14 179.32 365.17 179.29 C 365.28 197.53 365.20 215.76 365.21 233.99 C 360.15 234.00 355.09 234.00 350.04 233.99 C 350.07 215.76 350.00 197.52 350.08 179.28 Z" />
<path fill="#052049" opacity="1.00" d=" M 382.29 179.30 C 387.10 179.32 391.91 179.32 396.72 179.29 C 396.74 182.44 396.73 185.59 396.94 188.74 C 399.38 185.33 401.96 181.63 406.06 180.08 C 413.01 177.37 421.85 178.26 427.21 183.79 C 431.19 187.72 432.69 193.47 432.70 198.93 C 432.78 210.61 432.66 222.29 432.75 233.97 C 427.69 234.01 422.63 233.99 417.57 234.00 C 417.51 223.98 417.55 213.97 417.57 203.95 C 417.53 200.75 417.50 197.22 415.40 194.59 C 411.36 189.46 402.11 190.29 398.99 196.02 C 397.44 198.72 397.48 201.93 397.45 204.94 C 397.47 214.63 397.50 224.32 397.44 234.00 C 392.38 233.99 387.32 234.01 382.26 233.97 C 382.33 215.74 382.28 197.52 382.29 179.30 Z" />
<path fill="#052049" opacity="1.00" d=" M 453.39 184.41 C 458.96 179.47 466.81 178.34 474.01 178.67 C 480.07 178.92 486.47 180.71 490.68 185.32 C 493.21 187.90 494.28 191.43 495.24 194.82 C 490.81 195.13 486.39 195.66 481.96 195.60 C 479.91 193.50 478.42 190.46 475.32 189.78 C 471.59 188.91 466.86 189.24 464.31 192.46 C 462.66 194.90 464.23 198.29 466.94 199.10 C 474.89 202.06 484.21 201.43 491.25 206.71 C 497.15 210.95 497.68 219.93 493.71 225.66 C 489.91 231.24 483.17 234.00 476.67 234.77 C 468.28 235.63 458.77 234.70 452.36 228.64 C 449.33 225.96 447.99 222.04 446.90 218.27 C 451.56 217.96 456.22 217.48 460.90 217.54 C 463.23 218.93 463.98 222.27 466.76 223.20 C 471.04 224.71 476.87 224.76 480.05 221.04 C 481.94 218.66 480.25 215.24 477.61 214.35 C 469.92 211.36 460.84 212.10 453.99 206.99 C 446.88 201.84 446.86 190.03 453.39 184.41 Z" />
<path fill="#052049" opacity="1.00" d=" M 511.08 179.28 C 516.10 179.33 521.14 179.32 526.17 179.29 C 526.28 197.53 526.20 215.76 526.21 233.99 C 521.15 234.00 516.09 234.00 511.04 233.99 C 511.07 215.76 511.00 197.52 511.08 179.28 Z" />
<path fill="#052049" opacity="1.00" d=" M 547.77 185.77 C 553.22 179.24 563.06 176.75 570.91 180.08 C 574.91 181.75 577.33 185.50 579.62 188.98 C 579.61 185.74 579.62 182.51 579.68 179.28 C 584.68 179.33 589.68 179.32 594.68 179.31 C 594.67 196.89 594.66 214.46 594.69 232.04 C 594.93 237.85 593.70 244.15 589.22 248.22 C 581.79 255.18 570.69 256.02 561.07 254.79 C 552.93 253.85 545.14 248.56 542.77 240.48 C 547.13 239.90 551.47 239.03 555.88 238.78 C 558.78 240.23 560.65 243.56 564.14 243.98 C 569.31 245.02 576.45 244.34 578.86 238.86 C 580.36 234.06 579.45 228.92 579.71 223.98 C 577.16 227.31 574.43 230.94 570.23 232.22 C 562.20 234.67 552.50 232.60 547.09 225.91 C 542.26 220.13 541.07 212.26 541.32 204.95 C 541.46 198.12 543.21 191.03 547.77 185.77 M 564.35 191.33 C 559.31 193.22 557.31 199.01 556.90 203.95 C 556.53 208.98 557.04 214.57 560.43 218.57 C 564.73 223.47 573.87 222.84 577.16 217.08 C 580.88 210.25 580.73 201.07 576.42 194.54 C 573.77 190.81 568.50 189.85 564.35 191.33 Z" />
</g>
</svg>
